<?xml version="1.0" encoding="UTF-8" standalone="no"?>
<!-- Created with Inkscape (http://www.inkscape.org/) -->

<svg
   width="10cm"
   height="10cm"
   viewBox="0 0 100 100"
   version="1.1"
   id="svg5"
   inkscape:version="1.2.2 (b0a8486541, 2022-12-01)"
   sodipodi:docname="ptychodus.svg"
   xmlns:inkscape="http://www.inkscape.org/namespaces/inkscape"
   xmlns:sodipodi="http://sodipodi.sourceforge.net/DTD/sodipodi-0.dtd"
   xmlns="http://www.w3.org/2000/svg"
   xmlns:svg="http://www.w3.org/2000/svg">
  <sodipodi:namedview
     id="namedview7"
     pagecolor="#ffffff"
     bordercolor="#666666"
     borderopacity="1.0"
     inkscape:showpageshadow="2"
     inkscape:pageopacity="0.0"
     inkscape:pagecheckerboard="0"
     inkscape:deskcolor="#d1d1d1"
     inkscape:document-units="mm"
     showgrid="false"
     inkscape:zoom="2.1219583"
     inkscape:cx="188.97638"
     inkscape:cy="188.97638"
     inkscape:window-width="1920"
     inkscape:window-height="1011"
     inkscape:window-x="0"
     inkscape:window-y="0"
     inkscape:window-maximized="1"
     inkscape:current-layer="g744" />
  <defs
     id="defs2" />
  <g
     inkscape:label="Layer 1"
     inkscape:groupmode="layer"
     id="layer1">
    <g
       id="g744"
       transform="translate(-0.49013608,1.7307617)"
       style="fill:#333333">
      <g
         id="g245"
         transform="translate(0.31488659)">
        <path
           id="rect234"
           style="fill:#333333;stroke-width:0.286167"
           d="m 35.000094,37.283137 c -12.93096,-0.02128 -41.16167,6.209172 -28.6995409,20.1967 0,0 0.030002,-0.0083 0.031523,-0.0088 2.0532769,3.371805 4.8100569,1.613679 4.8105589,-0.926559 1.819845,3.384473 4.600356,1.892635 4.826579,-0.568957 1.565769,3.436974 4.371472,2.229448 4.831746,-0.134876 1.621445,3.49285 4.537844,2.089876 4.8488,-0.415995 1.506648,3.770537 4.566844,2.424602 4.936133,-0.129191 1.402017,3.82192 4.530625,2.523124 4.940783,-0.05323 0.623534,0.01003 1.255868,0.0223 1.901693,0.03772 8.346415,1.186625 7.839836,-5.292068 2.994649,-17.272848 -0.935876,-0.4744 -2.885072,-0.71981 -5.422924,-0.723986 z m -5.716447,3.254065 c 1.572173,0.01779 3.322069,0.760915 4.913912,2.513025 4.767424,5.247408 -8.29937,7.673648 -9.450586,4.072619 -1.156183,-3.616564 1.317461,-6.622067 4.536674,-6.585644 z" />
        <path
           id="rect236"
           style="fill:#333333;stroke-width:0.286167"
           d="m 37.993709,57.840538 c -1.30073,0.01067 -2.591151,0.191321 -3.39049,0.74104 -0.470351,0.323468 -0.945442,0.623671 -1.422653,0.904338 -0.479722,-0.409799 -1.271233,-0.625699 -1.758032,-0.413412 -0.549998,0.239847 -0.9835,1.101494 -0.971,1.799374 -0.02303,0.01 -0.04622,0.02006 -0.06925,0.02997 -0.336522,-0.564469 -1.115645,-1.030813 -1.675867,-0.936894 -0.607309,0.101812 -1.254568,0.869043 -1.390096,1.563729 -0.354433,-0.536604 -1.098202,-0.966951 -1.638143,-0.876432 -0.683725,0.114622 -1.417627,1.072697 -1.415418,1.821077 -0.208688,-0.65426 -1.014148,-1.30306 -1.630908,-1.265039 -0.778833,0.04801 -1.73268,1.152144 -1.58905,1.935799 -0.0055,4.13e-4 -0.01058,6.25e-4 -0.01602,10e-4 -0.03301,-0.809247 -0.974926,-1.788387 -1.761649,-1.825728 -0.956319,-0.04539 -2.286095,1.187976 -2.084111,2.105297 -0.273914,7.906865 7.868881,5.396116 21.174418,3.898471 2.319348,-0.261062 3.702159,-6.33506 4.002857,-9.046993 0,0 -2.196707,-0.453414 -4.364592,-0.435633 z" />
        <path
           id="rect238"
           style="fill:#333333;stroke-width:0.286167"
           d="m 57.579794,40.530255 c 6.578304,-3.659125 6.202774,4.37717 6.835952,8.651182 0.45673,3.138614 -2.017147,13.131468 -6.76515,13.15424 2.935595,-8.857111 3.089005,-14.510666 -0.0708,-21.805422 z"
           sodipodi:nodetypes="cccc" />
        <path
           id="rect240"
           style="fill:#333333;stroke-width:0.286167"
           d="m 44.081947,67.358117 c 0,0 4.922977,1.981462 12.367081,0.341486 8.701641,-1.917019 2.666478,1.894481 14.810018,7.595363 12.143539,5.700881 -27.177099,2.85707 -27.177099,-7.936849 z"
           sodipodi:nodetypes="cszc" />
        <path
           id="rect242"
           style="fill:#333333;stroke-width:0.37241"
           d="m 59.963631,19.415231 c 6.137765,-4.945571 0.958185,8.822567 3.162651,16.441503 -6.410591,2.439215 -17.388671,1.218378 -17.388671,1.218378 1.482178,-8.014396 3.551899,-9.059091 14.22602,-17.659881 z"
           sodipodi:nodetypes="sccs" />
        <path
           id="rect244"
           style="fill:#333333;stroke-width:0.420538"
           d="m 70.540192,37.630392 c 0.45419,0.742379 1.258587,4.950798 -0.195599,6.517004 -0.796975,0.858365 -2.471666,0.858205 -3.432882,0.213603 -1.17958,-0.791038 -1.59087,-5.338767 -0.768718,-6.391119 0.507201,-0.649218 4.050944,-0.905442 4.397199,-0.339488 z"
           sodipodi:nodetypes="sssss" />
        <path
           id="rect250"
           style="fill:#333333;stroke-width:0.32314"
           d="m 94.954245,24.418199 c 5.985655,-4.177751 -2.25368,10.666767 -1.223053,18.296869 0.511293,3.785317 1.554163,6.309473 1.554163,6.309473 -17.800621,3.28374 -11.247973,-16.986786 -0.33111,-24.606342 z"
           sodipodi:nodetypes="sscs" />
        <path
           id="path570"
           style="fill:#333333;stroke-width:0.29423"
           d="m 46.667522,40.140825 c 6.829451,-2.388218 7.597834,4.801861 8.252473,9.779412 0.473296,3.655587 -1.414671,18.330875 -7.763963,15.74221 4.14562,-12.668247 2.50511,-17.109549 -0.48851,-25.521622 z"
           sodipodi:nodetypes="cccc" />
        <path
           id="path599"
           style="fill:#333333;stroke-width:0.350401"
           d="m 76.816346,37.615423 c 0.306594,0.678963 0.651724,4.419295 -0.599527,5.703728 -0.685755,0.703938 -2.003394,0.601067 -2.715602,-0.02324 -0.874005,-0.766138 -0.886637,-4.779945 -0.167807,-5.652475 0.443459,-0.538283 3.249201,-0.54562 3.482936,-0.02801 z"
           sodipodi:nodetypes="sssss" />
        <path
           id="path601"
           style="fill:#333333;stroke-width:0.340663"
           d="m 82.49658,37.527266 c 0.261171,0.69696 0.453867,4.513306 -0.750058,5.800277 -0.659818,0.705327 -1.878076,0.577856 -2.517208,-0.0704 -0.784328,-0.795531 -0.659408,-4.884757 0.03682,-5.761266 0.429516,-0.540738 3.031345,-0.499933 3.230452,0.0314 z"
           sodipodi:nodetypes="sssss" />
      </g>
    </g>
  </g>
</svg>
